<svg width="329" height="336" viewBox="0 0 329 336" fill="none" xmlns="http://www.w3.org/2000/svg">
<path d="M30.7102 61.6673C47.1187 61.6673 60.4204 48.0864 60.4204 31.3336C60.4204 14.5808 47.1187 1 30.7102 1C14.3017 1 1 14.5808 1 31.3336C1 48.0864 14.3017 61.6673 30.7102 61.6673Z" stroke="#FAFAFA" stroke-width="0.5" stroke-miterlimit="10"/>
<path d="M35.8825 72.1793C55.1157 72.1793 70.7072 56.2605 70.7072 36.6238C70.7072 16.9871 55.1157 1.06836 35.8825 1.06836C16.6493 1.06836 1.05777 16.9871 1.05777 36.6238C1.05777 56.2605 16.6493 72.1793 35.8825 72.1793Z" stroke="#FAFAFA" stroke-width="0.5" stroke-miterlimit="10"/>
<path d="M41.0595 82.6869C63.1151 82.6869 80.9947 64.432 80.9947 41.9135C80.9947 19.395 63.1151 1.14014 41.0595 1.14014C19.0039 1.14014 1.1243 19.395 1.1243 41.9135C1.1243 64.432 19.0039 82.6869 41.0595 82.6869Z" stroke="#FAFAFA" stroke-width="0.5" stroke-miterlimit="10"/>
<path d="M46.2298 93.2006C71.11 93.2006 91.2795 72.6079 91.2795 47.2055C91.2795 21.8031 71.11 1.21045 46.2298 1.21045C21.3495 1.21045 1.18002 21.8031 1.18002 47.2055C1.18002 72.6079 21.3495 93.2006 46.2298 93.2006Z" stroke="#FAFAFA" stroke-width="0.5" stroke-miterlimit="10"/>
<path d="M51.4013 103.71C79.1063 103.71 101.566 80.7794 101.566 52.493C101.566 24.2065 79.1063 1.27588 51.4013 1.27588C23.6964 1.27588 1.23703 24.2065 1.23703 52.493C1.23703 80.7794 23.6964 103.71 51.4013 103.71Z" stroke="#FAFAFA" stroke-width="0.5" stroke-miterlimit="10"/>
<path d="M56.5737 114.221C87.1033 114.221 111.853 88.9523 111.853 57.7821C111.853 26.6118 87.1033 1.34326 56.5737 1.34326C26.044 1.34326 1.2948 26.6118 1.2948 57.7821C1.2948 88.9523 26.044 114.221 56.5737 114.221Z" stroke="#FAFAFA" stroke-width="0.5" stroke-miterlimit="10"/>
<path d="M61.7491 124.727C95.1012 124.727 122.138 97.1227 122.138 63.0707C122.138 29.0187 95.1012 1.41406 61.7491 1.41406C28.397 1.41406 1.35977 29.0187 1.35977 63.0707C1.35977 97.1227 28.397 124.727 61.7491 124.727Z" stroke="#FAFAFA" stroke-width="0.5" stroke-miterlimit="10"/>
<path d="M66.9214 135.237C103.098 135.237 132.425 105.294 132.425 68.358C132.425 31.422 103.098 1.47949 66.9214 1.47949C30.7446 1.47949 1.41748 31.422 1.41748 68.358C1.41748 105.294 30.7446 135.237 66.9214 135.237Z" stroke="#FAFAFA" stroke-width="0.5" stroke-miterlimit="10"/>
<path d="M72.0925 145.747C111.094 145.747 142.711 113.467 142.711 73.6467C142.711 33.8268 111.094 1.54639 72.0925 1.54639C33.0911 1.54639 1.47412 33.8268 1.47412 73.6467C1.47412 113.467 33.0911 145.747 72.0925 145.747Z" stroke="#FAFAFA" stroke-width="0.5" stroke-miterlimit="10"/>
<path d="M77.2689 156.262C119.095 156.262 153.002 121.644 153.002 78.9399C153.002 36.236 119.095 1.61768 77.2689 1.61768C35.4427 1.61768 1.53589 36.236 1.53589 78.9399C1.53589 121.644 35.4427 156.262 77.2689 156.262Z" stroke="#FAFAFA" stroke-width="0.5" stroke-miterlimit="10"/>
<path d="M82.4401 166.768C127.089 166.768 163.284 129.814 163.284 84.2284C163.284 38.6429 127.089 1.68848 82.4401 1.68848C37.7915 1.68848 1.59668 38.6429 1.59668 84.2284C1.59668 129.814 37.7915 166.768 82.4401 166.768Z" stroke="#FAFAFA" stroke-width="0.5" stroke-miterlimit="10"/>
<path d="M87.6125 177.279C135.086 177.279 173.57 137.986 173.57 89.5169C173.57 41.0473 135.086 1.75488 87.6125 1.75488C40.1392 1.75488 1.65454 41.0473 1.65454 89.5169C1.65454 137.986 40.1392 177.279 87.6125 177.279Z" stroke="#FAFAFA" stroke-width="0.5" stroke-miterlimit="10"/>
<path d="M92.7878 187.789C143.086 187.789 183.86 146.159 183.86 94.8058C183.86 43.4524 143.086 1.82227 92.7878 1.82227C42.4899 1.82227 1.71533 43.4524 1.71533 94.8058C1.71533 146.159 42.4899 187.789 92.7878 187.789Z" stroke="#FAFAFA" stroke-width="0.5" stroke-miterlimit="10"/>
<path d="M97.9603 198.3C151.083 198.3 194.147 154.332 194.147 100.094C194.147 45.8568 151.083 1.88867 97.9603 1.88867C44.8376 1.88867 1.77319 45.8568 1.77319 100.094C1.77319 154.332 44.8376 198.3 97.9603 198.3Z" stroke="#FAFAFA" stroke-width="0.5" stroke-miterlimit="10"/>
<path d="M103.132 208.81C159.077 208.81 204.429 162.506 204.429 105.387C204.429 48.2681 159.077 1.96387 103.132 1.96387C47.1864 1.96387 1.83398 48.2681 1.83398 105.387C1.83398 162.506 47.1864 208.81 103.132 208.81Z" stroke="#FAFAFA" stroke-width="0.5" stroke-miterlimit="10"/>
<path d="M108.304 219.322C167.073 219.322 214.716 170.68 214.716 110.677C214.716 50.6738 167.073 2.03174 108.304 2.03174C49.5339 2.03174 1.8916 50.6738 1.8916 110.677C1.8916 170.68 49.5339 219.322 108.304 219.322Z" stroke="#FAFAFA" stroke-width="0.5" stroke-miterlimit="10"/>
<path d="M113.479 229.832C175.074 229.832 225.006 178.852 225.006 115.965C225.006 53.0777 175.074 2.09766 113.479 2.09766C51.8846 2.09766 1.95239 53.0777 1.95239 115.965C1.95239 178.852 51.8846 229.832 113.479 229.832Z" stroke="#FAFAFA" stroke-width="0.5" stroke-miterlimit="10"/>
<path d="M118.651 240.338C183.068 240.338 235.289 187.022 235.289 121.253C235.289 55.4841 183.068 2.16797 118.651 2.16797C54.2346 2.16797 2.0144 55.4841 2.0144 121.253C2.0144 187.022 54.2346 240.338 118.651 240.338Z" stroke="#FAFAFA" stroke-width="0.5" stroke-miterlimit="10"/>
<path d="M123.823 250.849C191.064 250.849 245.574 195.195 245.574 126.543C245.574 57.8899 191.064 2.23584 123.823 2.23584C56.5811 2.23584 2.07104 57.8899 2.07104 126.543C2.07104 195.195 56.5811 250.849 123.823 250.849Z" stroke="#FAFAFA" stroke-width="0.5" stroke-miterlimit="10"/>
<path d="M128.999 261.364C199.066 261.364 255.865 203.372 255.865 131.835C255.865 60.2985 199.066 2.30664 128.999 2.30664C58.933 2.30664 2.13306 60.2985 2.13306 131.835C2.13306 203.372 58.933 261.364 128.999 261.364Z" stroke="#FAFAFA" stroke-width="0.5" stroke-miterlimit="10"/>
<path d="M134.17 271.874C207.061 271.874 266.151 211.544 266.151 137.123C266.151 62.7028 207.061 2.37305 134.17 2.37305C61.2793 2.37305 2.18945 62.7028 2.18945 137.123C2.18945 211.544 61.2793 271.874 134.17 271.874Z" stroke="#FAFAFA" stroke-width="0.5" stroke-miterlimit="10"/>
<path d="M139.343 282.38C215.056 282.38 276.434 219.714 276.434 142.412C276.434 65.1097 215.056 2.44385 139.343 2.44385C63.6293 2.44385 2.25146 65.1097 2.25146 142.412C2.25146 219.714 63.6293 282.38 139.343 282.38Z" stroke="#FAFAFA" stroke-width="0.5" stroke-miterlimit="10"/>
<path d="M144.514 292.891C223.052 292.891 286.72 227.887 286.72 147.701C286.72 67.515 223.052 2.51123 144.514 2.51123C65.9763 2.51123 2.30859 67.515 2.30859 147.701C2.30859 227.887 65.9763 292.891 144.514 292.891Z" stroke="#FAFAFA" stroke-width="0.5" stroke-miterlimit="10"/>
<path d="M149.69 303.4C231.053 303.4 297.011 236.059 297.011 152.989C297.011 69.9184 231.053 2.57666 149.69 2.57666C68.3274 2.57666 2.36987 69.9184 2.36987 152.989C2.36987 236.059 68.3274 303.4 149.69 303.4Z" stroke="#FAFAFA" stroke-width="0.5" stroke-miterlimit="10"/>
<path d="M154.862 313.916C239.049 313.916 307.297 244.237 307.297 158.283C307.297 72.3285 239.049 2.64893 154.862 2.64893C70.6744 2.64893 2.427 72.3285 2.427 158.283C2.427 244.237 70.6744 313.916 154.862 313.916Z" stroke="#FAFAFA" stroke-width="0.5" stroke-miterlimit="10"/>
<path d="M160.034 324.423C247.044 324.423 317.579 252.407 317.579 163.571C317.579 74.7354 247.044 2.71973 160.034 2.71973C73.024 2.71973 2.48853 74.7354 2.48853 163.571C2.48853 252.407 73.024 324.423 160.034 324.423Z" stroke="#FAFAFA" stroke-width="0.5" stroke-miterlimit="10"/>
<path d="M165.209 334.933C255.044 334.933 327.869 260.579 327.869 168.859C327.869 77.1397 255.044 2.78613 165.209 2.78613C75.3749 2.78613 2.54956 77.1397 2.54956 168.859C2.54956 260.579 75.3749 334.933 165.209 334.933Z" stroke="#FAFAFA" stroke-width="0.5" stroke-miterlimit="10"/>
<path d="M308.425 335C319.236 335 328 326.052 328 315.014C328 303.977 319.236 295.029 308.425 295.029C297.614 295.029 288.85 303.977 288.85 315.014C288.85 326.052 297.614 335 308.425 335Z" stroke="#FAFAFA" stroke-width="0.5" stroke-miterlimit="10"/>
<path d="M305.019 334.954C317.691 334.954 327.963 324.466 327.963 311.528C327.963 298.591 317.691 288.103 305.019 288.103C292.348 288.103 282.075 298.591 282.075 311.528C282.075 324.466 292.348 334.954 305.019 334.954Z" stroke="#FAFAFA" stroke-width="0.5" stroke-miterlimit="10"/>
<path d="M301.61 334.912C316.144 334.912 327.927 322.882 327.927 308.043C327.927 293.204 316.144 281.174 301.61 281.174C287.075 281.174 275.293 293.204 275.293 308.043C275.293 322.882 287.075 334.912 301.61 334.912Z" stroke="#FAFAFA" stroke-width="0.5" stroke-miterlimit="10"/>
<path d="M298.2 334.867C314.595 334.867 327.886 321.297 327.886 304.558C327.886 287.819 314.595 274.25 298.2 274.25C281.805 274.25 268.515 287.819 268.515 304.558C268.515 321.297 281.805 334.867 298.2 334.867Z" stroke="#FAFAFA" stroke-width="0.5" stroke-miterlimit="10"/>
<path d="M294.794 334.821C313.05 334.821 327.849 319.712 327.849 301.073C327.849 282.434 313.05 267.325 294.794 267.325C276.539 267.325 261.74 282.434 261.74 301.073C261.74 319.712 276.539 334.821 294.794 334.821Z" stroke="#FAFAFA" stroke-width="0.5" stroke-miterlimit="10"/>
<path d="M291.384 334.775C311.501 334.775 327.808 318.125 327.808 297.587C327.808 277.049 311.501 260.399 291.384 260.399C271.268 260.399 254.961 277.049 254.961 297.587C254.961 318.125 271.268 334.775 291.384 334.775Z" stroke="#FAFAFA" stroke-width="0.5" stroke-miterlimit="10"/>
<path d="M287.975 334.729C309.951 334.729 327.767 316.54 327.767 294.102C327.767 271.664 309.951 253.475 287.975 253.475C265.998 253.475 248.183 271.664 248.183 294.102C248.183 316.54 265.998 334.729 287.975 334.729Z" stroke="#FAFAFA" stroke-width="0.5" stroke-miterlimit="10"/>
<path d="M284.566 334.683C308.403 334.683 327.727 314.953 327.727 290.616C327.727 266.278 308.403 246.549 284.566 246.549C260.729 246.549 241.405 266.278 241.405 290.616C241.405 314.953 260.729 334.683 284.566 334.683Z" stroke="#FAFAFA" stroke-width="0.5" stroke-miterlimit="10"/>
<path d="M281.16 334.638C306.858 334.638 327.69 313.368 327.69 287.131C327.69 260.894 306.858 239.625 281.16 239.625C255.462 239.625 234.63 260.894 234.63 287.131C234.63 313.368 255.462 334.638 281.16 334.638Z" stroke="#FAFAFA" stroke-width="0.5" stroke-miterlimit="10"/>
<path d="M277.75 334.591C305.308 334.591 327.649 311.782 327.649 283.645C327.649 255.509 305.308 232.7 277.75 232.7C250.192 232.7 227.852 255.509 227.852 283.645C227.852 311.782 250.192 334.591 277.75 334.591Z" stroke="#FAFAFA" stroke-width="0.5" stroke-miterlimit="10"/>
<path d="M274.341 334.549C303.762 334.549 327.612 310.198 327.612 280.159C327.612 250.121 303.762 225.77 274.341 225.77C244.92 225.77 221.069 250.121 221.069 280.159C221.069 310.198 244.92 334.549 274.341 334.549Z" stroke="#FAFAFA" stroke-width="0.5" stroke-miterlimit="10"/>
<path d="M270.931 334.503C302.212 334.503 327.571 308.613 327.571 276.675C327.571 244.737 302.212 218.846 270.931 218.846C239.649 218.846 214.291 244.737 214.291 276.675C214.291 308.613 239.649 334.503 270.931 334.503Z" stroke="#FAFAFA" stroke-width="0.5" stroke-miterlimit="10"/>
<path d="M267.525 334.457C300.667 334.457 327.534 307.026 327.534 273.188C327.534 239.351 300.667 211.92 267.525 211.92C234.383 211.92 207.516 239.351 207.516 273.188C207.516 307.026 234.383 334.457 267.525 334.457Z" stroke="#FAFAFA" stroke-width="0.5" stroke-miterlimit="10"/>
<path d="M264.115 334.412C299.118 334.412 327.493 305.441 327.493 269.704C327.493 233.967 299.118 204.996 264.115 204.996C229.113 204.996 200.737 233.967 200.737 269.704C200.737 305.441 229.113 334.412 264.115 334.412Z" stroke="#FAFAFA" stroke-width="0.5" stroke-miterlimit="10"/>
<path d="M260.706 334.366C297.569 334.366 327.452 303.855 327.452 266.218C327.452 228.581 297.569 198.071 260.706 198.071C223.843 198.071 193.959 228.581 193.959 266.218C193.959 303.855 223.843 334.366 260.706 334.366Z" stroke="#FAFAFA" stroke-width="0.5" stroke-miterlimit="10"/>
<path d="M257.3 334.319C296.024 334.319 327.415 302.268 327.415 262.732C327.415 223.196 296.024 191.145 257.3 191.145C218.576 191.145 187.184 223.196 187.184 262.732C187.184 302.268 218.576 334.319 257.3 334.319Z" stroke="#FAFAFA" stroke-width="0.5" stroke-miterlimit="10"/>
<path d="M253.89 334.274C294.474 334.274 327.374 300.683 327.374 259.247C327.374 217.811 294.474 184.221 253.89 184.221C213.306 184.221 180.406 217.811 180.406 259.247C180.406 300.683 213.306 334.274 253.89 334.274Z" stroke="#FAFAFA" stroke-width="0.5" stroke-miterlimit="10"/>
<path d="M250.481 334.231C292.928 334.231 327.338 299.099 327.338 255.761C327.338 212.423 292.928 177.291 250.481 177.291C208.034 177.291 173.624 212.423 173.624 255.761C173.624 299.099 208.034 334.231 250.481 334.231Z" stroke="#FAFAFA" stroke-width="0.5" stroke-miterlimit="10"/>
<path d="M247.071 334.185C291.379 334.185 327.297 297.513 327.297 252.276C327.297 207.038 291.379 170.366 247.071 170.366C202.763 170.366 166.845 207.038 166.845 252.276C166.845 297.513 202.763 334.185 247.071 334.185Z" stroke="#FAFAFA" stroke-width="0.5" stroke-miterlimit="10"/>
<path d="M243.665 334.14C289.834 334.14 327.26 295.928 327.26 248.791C327.26 201.654 289.834 163.441 243.665 163.441C197.497 163.441 160.071 201.654 160.071 248.791C160.071 295.928 197.497 334.14 243.665 334.14Z" stroke="#FAFAFA" stroke-width="0.5" stroke-miterlimit="10"/>
<path d="M240.256 334.094C288.284 334.094 327.219 294.342 327.219 245.306C327.219 196.269 288.284 156.517 240.256 156.517C192.227 156.517 153.292 196.269 153.292 245.306C153.292 294.342 192.227 334.094 240.256 334.094Z" stroke="#FAFAFA" stroke-width="0.5" stroke-miterlimit="10"/>
<path d="M236.846 334.048C286.735 334.048 327.179 292.756 327.179 241.82C327.179 190.884 286.735 149.592 236.846 149.592C186.957 149.592 146.513 190.884 146.513 241.82C146.513 292.756 186.957 334.048 236.846 334.048Z" stroke="#FAFAFA" stroke-width="0.5" stroke-miterlimit="10"/>
<path d="M233.436 334.003C285.186 334.003 327.138 291.171 327.138 238.335C327.138 185.499 285.186 142.667 233.436 142.667C181.686 142.667 139.735 185.499 139.735 238.335C139.735 291.171 181.686 334.003 233.436 334.003Z" stroke="#FAFAFA" stroke-width="0.5" stroke-miterlimit="10"/>
<path d="M230.031 333.96C283.641 333.96 327.101 289.589 327.101 234.853C327.101 180.118 283.641 135.746 230.031 135.746C176.42 135.746 132.96 180.118 132.96 234.853C132.96 289.589 176.42 333.96 230.031 333.96Z" stroke="#FAFAFA" stroke-width="0.5" stroke-miterlimit="10"/>
<path d="M226.621 333.915C282.092 333.915 327.06 288.003 327.06 231.368C327.06 174.733 282.092 128.821 226.621 128.821C171.15 128.821 126.182 174.733 126.182 231.368C126.182 288.003 171.15 333.915 226.621 333.915Z" stroke="#FAFAFA" stroke-width="0.5" stroke-miterlimit="10"/>
<path d="M223.211 333.873C280.545 333.873 327.023 286.419 327.023 227.882C327.023 169.346 280.545 121.892 223.211 121.892C165.878 121.892 119.399 169.346 119.399 227.882C119.399 286.419 165.878 333.873 223.211 333.873Z" stroke="#FAFAFA" stroke-width="0.5" stroke-miterlimit="10"/>
<path d="M219.806 333.828C279 333.828 326.987 284.834 326.987 224.398C326.987 163.961 279 114.968 219.806 114.968C160.612 114.968 112.625 163.961 112.625 224.398C112.625 284.834 160.612 333.828 219.806 333.828Z" stroke="#FAFAFA" stroke-width="0.5" stroke-miterlimit="10"/>
</svg>
